<?xml version="1.0" standalone="no"?>
<!DOCTYPE svg PUBLIC "-//W3C//DTD SVG 20010904//EN"
 "http://www.w3.org/TR/2001/REC-SVG-20010904/DTD/svg10.dtd">
<svg version="1.0" xmlns="http://www.w3.org/2000/svg"
 width="160.000000pt" height="74.000000pt" viewBox="0 0 160.000000 74.000000"
 preserveAspectRatio="xMidYMid meet">

<g transform="translate(0.000000,74.000000) scale(0.100000,-0.100000)"
fill="#000000" stroke="none">
<path d="M550 556 c-58 -43 -76 -64 -63 -77 13 -13 38 -2 51 24 7 12 23 37 38
55 33 40 30 40 -26 -2z"/>
<path d="M647 521 c-25 -24 -27 -41 -6 -41 9 0 43 60 37 65 -2 1 -16 -10 -31
-24z"/>
<path d="M421 509 c-13 -11 -21 -23 -17 -26 4 -4 16 3 28 15 28 28 20 36 -11
11z"/>
<path d="M583 503 c-23 -16 -30 -33 -14 -33 5 0 16 11 25 25 19 29 19 29 -11
8z"/>
<path d="M250 468 c-55 -38 -75 -73 -75 -133 0 -156 195 -212 284 -81 23 33
27 49 23 84 -3 35 1 51 19 75 l23 32 -29 -19 c-28 -18 -29 -18 -42 0 -7 10
-11 24 -9 31 3 7 -1 10 -9 7 -7 -3 -27 2 -44 10 -43 23 -102 20 -141 -6z m70
-23 c0 -21 -5 -25 -31 -25 -29 0 -30 2 -18 18 31 39 49 42 49 7z m68 -13 c2
-7 -7 -12 -22 -12 -21 0 -26 5 -26 26 0 25 1 26 22 12 12 -8 24 -20 26 -26z
m-143 -1 c-3 -6 -11 -11 -17 -11 -6 0 -6 6 2 15 14 17 26 13 15 -4z m-19 -53
c-3 -13 -6 -26 -6 -30 0 -5 -7 -8 -15 -8 -17 0 -18 4 -9 38 4 12 13 22 21 22
11 0 14 -6 9 -22z m94 -8 c0 -28 -2 -30 -40 -30 -28 0 -40 4 -40 14 0 33 13
46 46 46 31 0 34 -3 34 -30z m44 13 c5 -12 9 -14 18 -5 15 15 28 15 28 1 0
-16 -31 -38 -52 -39 -13 0 -18 8 -18 30 0 33 14 40 24 13z m83 11 c-3 -3 -12
-4 -19 -1 -8 3 -5 6 6 6 11 1 17 -2 13 -5z m-223 -86 c9 -34 8 -38 -9 -38 -8
0 -15 3 -15 8 0 4 -3 17 -6 30 -5 16 -2 22 9 22 8 0 17 -10 21 -22z m96 -8 c0
-27 -3 -30 -34 -30 -33 0 -46 13 -46 46 0 10 12 14 40 14 38 0 40 -2 40 -30z
m40 6 c0 -18 7 -26 23 -29 16 -3 13 -5 -10 -6 -30 -1 -33 2 -33 29 0 17 5 30
10 30 6 0 10 -11 10 -24z m100 6 c0 -18 -18 -42 -32 -42 -4 0 -5 7 -3 15 3 8
7 22 10 30 6 21 25 19 25 -3z m-215 -73 c11 -17 -1 -21 -15 -4 -8 9 -8 15 -2
15 6 0 14 -5 17 -11z m75 -14 c0 -35 -18 -32 -49 8 -12 15 -11 17 18 17 26 0
31 -4 31 -25z m70 18 c0 -10 -32 -43 -42 -43 -4 0 -8 11 -8 25 0 20 5 25 25
25 14 0 25 -3 25 -7z m40 3 c0 -2 -7 -9 -15 -16 -13 -11 -14 -10 -9 4 5 14 24
23 24 12z"/>
<path d="M579 437 c-66 -52 -71 -57 -64 -74 6 -16 11 -13 37 17 27 32 52 70
46 70 -2 0 -10 -6 -19 -13z"/>
<path d="M580 360 c-14 -10 -22 -22 -18 -25 9 -9 26 2 38 26 13 23 11 23 -20
-1z"/>
<path d="M476 249 c-3 -17 -6 -39 -6 -48 1 -15 2 -15 13 0 7 9 22 19 35 23 33
11 26 50 -9 54 -22 3 -27 -2 -33 -29z m39 12 c3 -5 1 -12 -5 -16 -5 -3 -10 1
-10 9 0 18 6 21 15 7z"/>
<path d="M836 258 c-13 -51 -8 -68 22 -68 15 0 33 5 40 12 9 9 15 9 24 0 17
-17 41 -15 34 3 -3 9 0 15 9 15 20 0 19 29 -1 37 -8 3 -23 -1 -32 -10 -14 -15
-16 -14 -26 6 -16 32 -61 35 -70 5z m52 -20 c-5 -34 -38 -37 -38 -4 0 20 5 26
21 26 15 0 20 -5 17 -22z"/>
<path d="M996 249 c-9 -45 -8 -65 3 -54 14 15 25 85 13 85 -5 0 -12 -14 -16
-31z"/>
<path d="M706 255 c-11 -30 -7 -65 8 -65 8 0 15 8 15 18 0 9 1 26 3 36 4 24
-17 33 -26 11z"/>
<path d="M1364 262 c-13 -8 -7 -72 7 -72 5 0 9 11 9 24 0 14 5 28 10 31 6 4 8
11 5 16 -7 11 -16 11 -31 1z"/>
<path d="M561 241 c-27 -27 -17 -53 18 -49 30 3 41 38 17 57 -12 10 -19 8 -35
-8z m25 -26 c-3 -9 -11 -13 -16 -10 -8 5 -7 11 1 21 14 18 24 11 15 -11z"/>
<path d="M629 231 c-6 -15 -6 -28 -1 -33 6 -6 12 1 16 17 4 14 11 23 15 20 5
-3 7 -14 4 -25 -3 -11 0 -20 6 -20 13 0 26 45 17 59 -12 18 -48 7 -57 -18z"/>
<path d="M768 249 c-10 -5 -18 -21 -18 -34 0 -20 5 -25 25 -25 33 0 51 33 29
54 -8 9 -16 16 -17 16 -1 0 -10 -5 -19 -11z m22 -31 c0 -16 -3 -19 -11 -11 -6
6 -8 16 -5 22 11 17 16 13 16 -11z"/>
<path d="M1035 252 c-3 -3 -5 -19 -4 -36 0 -30 1 -30 11 -8 12 24 34 31 25 7
-4 -8 -2 -17 3 -20 5 -3 11 4 15 15 7 22 28 28 23 7 -2 -7 2 -14 7 -15 6 -1
10 10 10 25 0 26 -3 28 -43 29 -23 0 -44 -2 -47 -4z"/>
<path d="M1145 233 c-3 -12 -7 -34 -10 -48 -6 -27 9 -35 19 -10 3 8 12 15 20
15 8 0 19 8 25 18 9 16 10 16 16 0 5 -12 18 -18 36 -18 26 0 29 3 29 35 0 39
-17 46 -45 19 -13 -13 -18 -14 -31 -3 -26 22 -54 18 -59 -8z m111 -20 c-10
-10 -19 5 -10 18 6 11 8 11 12 0 2 -7 1 -15 -2 -18z m-68 6 c-2 -6 -8 -10 -13
-10 -5 0 -11 4 -13 10 -2 6 4 11 13 11 9 0 15 -5 13 -11z"/>
<path d="M1311 241 c-24 -24 -18 -51 11 -51 17 0 18 3 8 15 -10 12 -10 18 0
30 20 24 4 29 -19 6z"/>
<path d="M1416 241 c-10 -11 -16 -27 -13 -36 9 -23 27 -18 24 6 -1 12 4 24 12
27 11 3 12 -2 7 -24 -7 -28 -7 -28 11 -11 13 13 15 21 7 34 -16 25 -28 26 -48
4z"/>
</g>
</svg>
